<?xml version="1.0" standalone="no"?>
<!DOCTYPE svg PUBLIC "-//W3C//DTD SVG 20010904//EN"
 "http://www.w3.org/TR/2001/REC-SVG-20010904/DTD/svg10.dtd">
<svg version="1.0" xmlns="http://www.w3.org/2000/svg"
 width="1089.000000pt" height="1089.000000pt" viewBox="0 0 1089.000000 1089.000000"
 preserveAspectRatio="xMidYMid meet">
<metadata>
Created by potrace 1.14, written by Peter Selinger 2001-2017
</metadata>
<g transform="translate(0.000000,1089.000000) scale(0.100000,-0.100000)"
fill="#000000" stroke="none">
<path d="M5039 10746 c-2 -2 -51 -6 -109 -10 -92 -5 -188 -15 -310 -31 -19 -3
-55 -7 -80 -10 -25 -3 -83 -13 -130 -21 -47 -9 -96 -18 -110 -20 -261 -43
-742 -188 -1025 -308 -219 -94 -542 -252 -576 -282 -8 -8 -18 -14 -21 -14 -10
0 -148 -83 -261 -156 -529 -344 -995 -780 -1369 -1284 -268 -360 -508 -791
-664 -1190 -14 -36 -30 -74 -35 -85 -37 -82 -161 -474 -189 -600 -7 -27 -13
-57 -16 -65 -4 -16 -33 -142 -40 -175 -2 -10 -6 -37 -9 -60 -4 -22 -10 -56
-15 -75 -4 -19 -14 -75 -20 -125 -7 -49 -14 -99 -16 -110 -2 -10 -6 -49 -10
-85 -3 -36 -8 -72 -9 -81 -19 -100 -27 -685 -12 -891 10 -138 13 -164 33 -318
6 -47 25 -169 30 -200 3 -14 9 -49 14 -78 5 -30 12 -61 14 -70 3 -10 7 -28 10
-42 3 -21 21 -97 51 -223 105 -444 338 -1002 598 -1432 296 -489 680 -940
1107 -1301 717 -605 1559 -1006 2470 -1175 124 -23 328 -52 445 -63 180 -17
250 -20 505 -21 254 0 365 4 535 21 63 6 331 42 365 49 14 3 41 8 60 10 19 3
46 8 60 11 14 3 36 8 50 10 151 28 409 97 610 164 649 215 1214 530 1740 969
213 178 453 414 610 601 30 36 57 67 60 70 3 3 24 28 46 55 323 398 607 879
791 1340 24 61 48 119 53 130 47 101 188 579 216 735 3 14 7 33 10 42 5 18 10
39 18 89 3 19 7 43 10 54 2 11 7 40 11 65 4 25 9 52 10 61 2 9 6 40 10 69 4
29 8 60 10 69 1 9 6 48 10 86 5 39 9 79 11 90 25 210 25 926 -1 1025 -2 8 -6
47 -10 85 -3 39 -10 95 -15 125 -5 30 -12 79 -15 107 -4 29 -10 66 -15 83 -5
17 -9 31 -8 33 0 1 -3 23 -7 48 l-7 46 -176 -100 c-98 -55 -212 -120 -254
-144 -55 -31 -76 -48 -73 -61 1 -9 6 -39 9 -67 16 -123 18 -141 22 -165 19
-124 26 -665 11 -880 -5 -63 -10 -117 -12 -120 -1 -3 -6 -34 -9 -70 -4 -36
-16 -121 -26 -190 -110 -687 -385 -1373 -779 -1940 -36 -52 -69 -99 -73 -105
-5 -5 -38 -48 -74 -95 -181 -236 -428 -501 -619 -665 -38 -33 -81 -71 -95 -83
-45 -42 -338 -259 -438 -325 -158 -104 -317 -195 -493 -283 -92 -46 -169 -84
-173 -84 -3 0 -29 -11 -58 -24 -187 -85 -546 -208 -736 -251 -9 -2 -64 -15
-122 -28 -58 -14 -139 -30 -180 -37 -41 -7 -84 -14 -95 -16 -45 -9 -73 -13
-130 -20 -33 -3 -68 -8 -79 -10 -132 -25 -668 -37 -881 -21 -143 11 -196 16
-230 21 -16 3 -52 8 -80 11 -51 7 -57 8 -160 25 -326 54 -692 160 -1009 290
-137 57 -419 193 -526 255 -36 21 -81 46 -100 57 -130 75 -404 265 -544 378
-267 215 -527 478 -745 750 -478 598 -821 1355 -955 2110 -27 158 -27 152 -51
345 -14 111 -20 257 -20 510 0 302 6 406 35 615 6 41 13 91 16 110 39 287 164
743 283 1032 65 158 83 198 167 368 409 825 1084 1539 1882 1991 129 73 434
229 449 229 4 0 20 6 34 14 116 60 568 213 759 256 157 36 367 75 449 85 30 4
61 8 70 10 9 1 45 6 81 10 36 3 81 8 100 10 202 23 640 22 848 0 23 -3 63 -7
90 -10 851 -94 1647 -406 2325 -912 89 -66 184 -140 197 -153 3 -3 39 -34 80
-70 137 -117 351 -330 441 -437 24 -28 47 -52 51 -52 6 -1 476 253 484 262 14
13 -322 373 -512 548 -679 626 -1563 1079 -2484 1275 -195 41 -424 75 -600 90
-41 3 -91 8 -110 11 -41 5 -646 13 -651 9z"/>
<path d="M5049 9796 c-2 -2 -44 -7 -94 -11 -49 -3 -103 -8 -120 -10 -16 -2
-55 -7 -85 -10 -104 -12 -325 -55 -490 -96 -650 -161 -1286 -491 -1790 -929
-105 -91 -430 -417 -430 -431 0 -5 38 -34 85 -64 91 -59 165 -107 395 -255 80
-52 156 -95 170 -96 14 -1 63 -5 110 -8 47 -4 114 -9 150 -11 36 -3 94 -7 130
-10 36 -3 101 -7 145 -10 44 -3 103 -8 130 -10 28 -3 88 -7 135 -10 47 -3 110
-7 140 -10 30 -2 96 -7 145 -10 50 -3 104 -7 120 -9 17 -3 84 -7 150 -11 66
-4 127 -9 135 -10 8 -2 35 -4 60 -4 25 -1 40 -5 35 -10 -6 -4 -59 -34 -120
-66 -60 -32 -137 -73 -171 -91 -49 -28 -68 -33 -105 -29 -63 6 -173 15 -249
20 -36 2 -97 6 -135 10 -39 3 -101 7 -140 10 -38 3 -95 7 -125 9 -30 3 -93 7
-140 11 -47 4 -101 8 -120 10 -19 2 -84 7 -145 11 -60 3 -121 8 -135 9 -14 2
-39 3 -56 4 -31 1 -55 15 -552 336 -101 64 -187 114 -191 109 -54 -58 -252
-353 -336 -499 -86 -149 -214 -413 -269 -555 -26 -69 -52 -134 -56 -145 -12
-27 -63 -185 -88 -270 -36 -122 -88 -348 -106 -460 -2 -16 -8 -50 -11 -75 -4
-25 -9 -52 -10 -60 -4 -19 -16 -134 -18 -170 -2 -21 17 -36 148 -116 83 -50
158 -100 167 -111 21 -22 258 -412 258 -423 0 -5 3 -10 8 -12 4 -1 53 -79 109
-173 56 -93 114 -182 130 -197 15 -15 148 -86 296 -157 147 -72 280 -137 296
-146 l30 -15 48 63 c26 34 54 68 63 75 160 134 388 110 500 -53 43 -62 61
-120 61 -193 0 -72 -13 -120 -50 -178 -36 -58 -282 -314 -306 -319 -47 -11
-72 -11 -115 0 -47 12 -150 61 -150 71 0 5 310 406 357 462 13 15 23 34 23 42
0 20 -20 40 -40 40 -17 0 -22 -5 -95 -100 -48 -61 -163 -208 -188 -240 -7 -8
-34 -43 -61 -78 -26 -35 -53 -61 -59 -59 -19 6 -86 110 -108 167 -11 30 -21
72 -22 93 l-1 37 -155 76 c-86 41 -230 112 -321 157 l-164 82 -154 255 c-85
140 -164 273 -176 295 -35 61 -157 258 -168 272 -15 19 -167 104 -176 99 -13
-8 -2 -574 13 -655 1 -9 6 -48 9 -86 4 -39 8 -80 10 -90 2 -11 7 -40 11 -65
97 -638 329 -1237 688 -1775 254 -381 604 -752 972 -1032 82 -63 390 -273 399
-273 3 0 40 -21 83 -46 405 -240 1005 -452 1472 -520 25 -4 55 -8 66 -10 30
-6 170 -22 260 -31 164 -15 733 -8 833 12 10 2 45 6 78 9 32 3 70 8 84 11 40
7 83 15 120 21 162 26 414 89 605 152 535 177 1020 449 1455 815 138 117 430
413 544 553 137 169 257 340 364 517 140 234 214 386 347 712 34 81 148 453
159 515 2 14 11 54 19 90 8 36 18 81 21 100 3 19 10 60 16 90 11 58 13 71 29
190 33 242 42 535 28 840 -4 74 -9 146 -11 160 -2 14 -7 56 -10 94 -4 39 -8
72 -10 74 -3 2 -248 -130 -426 -231 -19 -11 -60 -33 -90 -50 -30 -16 -95 -52
-144 -79 -48 -27 -112 -62 -142 -78 l-53 -29 -42 72 c-23 39 -73 125 -110 190
l-68 117 57 0 c236 2 468 98 630 262 69 69 138 163 165 224 18 39 28 47 142
109 51 27 142 78 560 310 28 15 146 81 262 146 117 66 215 119 218 119 3 0 23
12 45 26 38 26 41 26 79 11 63 -26 133 1 157 58 18 44 18 69 -1 109 -47 99
-196 85 -225 -20 -7 -24 -9 -47 -6 -52 3 -5 0 -14 -7 -20 -11 -9 -192 -112
-327 -185 -30 -17 -104 -58 -165 -92 -60 -34 -137 -77 -170 -95 -33 -18 -156
-86 -274 -152 -117 -66 -215 -117 -218 -115 -2 3 0 22 6 43 23 91 31 253 16
344 -14 82 -17 78 85 135 73 40 99 50 113 43 62 -32 137 -4 171 66 16 33 17
43 6 77 -19 56 -50 81 -109 87 -41 4 -55 0 -78 -18 -38 -30 -52 -58 -53 -105
-1 -39 -2 -41 -81 -89 -44 -27 -84 -45 -88 -40 -4 5 -18 34 -30 64 -32 78
-101 186 -158 247 l-48 52 299 166 300 167 33 -16 c54 -26 94 -21 137 17 70
61 59 163 -21 205 -28 16 -82 15 -113 -1 -35 -17 -70 -74 -70 -112 0 -32 -5
-35 -142 -111 -168 -93 -145 -80 -330 -183 l-148 -83 -67 45 c-38 24 -81 51
-98 60 -32 16 -164 62 -205 70 -243 54 -509 -2 -715 -148 -55 -39 -164 -147
-208 -206 -28 -37 -83 -140 -98 -181 -7 -21 -16 -38 -20 -38 -8 0 -212 231
-207 234 2 2 39 22 83 46 44 24 101 55 127 69 25 14 70 39 100 55 42 23 558
305 828 454 30 16 177 96 325 177 149 81 360 197 470 258 110 60 232 127 270
148 39 21 115 62 170 93 82 45 103 52 119 44 59 -32 131 -12 166 45 65 105
-36 220 -156 177 -40 -15 -66 -55 -72 -110 -4 -45 -6 -48 -56 -74 -28 -14 -73
-39 -101 -54 -43 -24 -498 -275 -635 -350 -25 -13 -88 -48 -140 -77 -131 -72
-184 -102 -260 -143 -36 -19 -114 -63 -175 -97 -60 -34 -117 -65 -125 -68 -8
-4 -33 -18 -55 -30 -32 -19 -449 -249 -720 -397 -27 -15 -75 -42 -107 -59 -64
-36 -78 -38 -78 -13 -1 33 -58 152 -114 236 -31 46 -56 87 -56 90 0 3 6 6 14
6 7 0 148 67 312 150 266 133 396 200 639 331 39 20 103 54 143 75 39 21 72
42 72 47 0 12 -282 293 -375 373 -44 38 -82 71 -85 75 -14 16 -267 204 -348
258 -326 218 -682 394 -1042 515 -131 44 -289 90 -340 99 -14 3 -52 12 -85 20
-33 9 -73 18 -90 21 -137 25 -201 36 -245 42 -25 3 -56 7 -70 10 -14 2 -54 6
-90 10 -36 3 -78 8 -95 11 -33 6 -630 14 -636 9z m491 -1737 c58 -12 119 -23
135 -26 26 -4 563 -117 751 -158 34 -7 74 -15 90 -18 16 -3 40 -8 54 -11 14
-3 36 -8 50 -10 14 -3 93 -18 175 -35 185 -37 270 -52 380 -65 95 -12 108 -15
114 -24 3 -5 22 -28 42 -53 20 -24 50 -69 66 -99 27 -50 74 -163 72 -175 0 -3
4 -29 10 -58 39 -189 -6 -419 -117 -597 -136 -219 -373 -358 -637 -375 -147
-10 -75 -39 -980 405 -192 94 -350 172 -351 173 -3 3 -13 136 -19 237 -11 213
-16 299 -20 353 -3 44 -1 57 10 57 12 0 243 -85 300 -110 11 -5 137 -54 280
-109 143 -54 271 -104 285 -110 23 -11 25 -17 27 -86 5 -256 196 -448 443
-446 192 1 352 116 416 299 19 55 23 84 21 158 -3 80 -7 99 -40 167 -109 232
-380 323 -608 206 -42 -21 -148 -119 -166 -152 -9 -16 -19 -14 -144 33 -74 28
-143 55 -154 60 -11 5 -83 32 -160 60 -77 28 -149 55 -160 60 -11 5 -49 20
-85 34 -36 13 -107 40 -157 60 -51 20 -97 36 -103 36 -5 0 -10 21 -11 48 -1
68 -7 178 -13 245 l-5 57 52 -5 c29 -3 99 -15 157 -26z m-291 -71 c2 -51 4
-121 5 -156 l1 -63 -240 -110 c-132 -60 -260 -119 -285 -131 -25 -11 -122 -56
-215 -98 -241 -109 -251 -115 -262 -147 -5 -15 -9 -60 -8 -100 0 -47 -3 -69
-10 -65 -38 23 -391 245 -394 248 -9 8 24 32 124 90 106 61 699 362 900 457
66 31 172 81 235 111 63 30 122 55 130 55 12 1 16 -17 19 -91z m26 -503 c4
-66 8 -149 10 -185 2 -36 6 -124 10 -195 6 -122 5 -131 -12 -132 -10 -1 -79
-20 -153 -43 -74 -23 -142 -43 -150 -45 -8 -2 -70 -20 -138 -40 l-122 -36
-170 107 -170 107 5 85 c6 93 11 104 58 123 18 7 82 36 142 64 61 28 134 62
164 76 30 13 158 72 285 130 127 58 232 105 232 105 1 -1 5 -55 9 -121z m3525
-7 c107 -28 218 -89 300 -165 153 -142 232 -320 232 -523 1 -314 -194 -583
-498 -686 -69 -24 -96 -27 -209 -28 -110 -1 -142 3 -205 23 -163 51 -260 118
-372 255 -166 207 -193 537 -62 772 164 294 494 437 814 352z m-2071 -191 c98
-65 99 -218 2 -283 -120 -79 -273 0 -273 141 0 137 156 218 271 142z m-2714
-131 c196 -124 210 -135 209 -162 -2 -63 -15 -324 -20 -404 -5 -79 -8 -87 -35
-108 -51 -41 -72 -117 -48 -179 38 -103 173 -129 256 -51 55 52 54 152 -2 214
-19 20 -33 40 -31 43 3 5 9 105 20 354 2 31 5 59 7 62 3 3 289 -174 306 -189
2 -1 5 -164 8 -361 l5 -359 -24 -51 c-48 -102 -128 -175 -234 -215 -68 -26
-240 -36 -317 -19 -140 31 -254 129 -300 258 -16 47 -21 105 -30 351 -8 222
-5 852 4 943 1 4 4 7 9 7 4 0 102 -61 217 -134z m3679 -121 c45 -48 46 -51 39
-95 -9 -60 -10 -232 -1 -296 4 -29 17 -80 28 -115 11 -35 20 -69 20 -75 0 -7
-53 -56 -117 -110 -65 -54 -120 -101 -123 -104 -3 -3 -48 -41 -100 -85 -52
-44 -100 -84 -106 -90 -7 -5 -33 -28 -60 -50 -26 -22 -82 -70 -124 -107 l-76
-66 -227 225 c-125 124 -227 227 -227 228 0 2 12 0 28 -4 27 -7 43 -7 142 3
73 8 83 10 174 40 223 75 401 232 507 445 58 117 83 221 91 364 l2 39 42 -49
c23 -26 63 -70 88 -98z m-1954 -520 c19 -13 179 -112 355 -221 176 -108 340
-216 365 -240 25 -23 59 -55 75 -70 17 -15 77 -70 134 -123 57 -53 116 -107
131 -121 15 -14 74 -68 131 -121 57 -53 131 -120 163 -150 33 -30 74 -68 93
-85 52 -49 224 -207 243 -224 16 -14 231 -213 276 -255 11 -11 67 -63 124
-115 57 -52 124 -113 148 -135 125 -115 184 -285 158 -454 -22 -133 -137 -297
-254 -359 -66 -35 -155 -61 -220 -64 -48 -1 -49 -2 -57 -46 -15 -89 -88 -224
-152 -283 -65 -60 -147 -100 -229 -113 -21 -4 -39 -8 -40 -9 -1 -1 -5 -30 -8
-65 -15 -161 -113 -329 -237 -408 -103 -65 -253 -81 -388 -43 -35 10 -67 16
-71 14 -4 -3 -10 -22 -14 -43 -9 -61 -73 -178 -131 -240 -82 -89 -206 -142
-329 -142 -54 0 -166 24 -213 46 -21 10 -69 36 -108 59 -383 231 -585 349
-589 343 -85 -118 -163 -209 -183 -214 -50 -13 -168 2 -224 28 -106 50 -115
21 101 312 105 143 194 265 197 271 6 17 -37 46 -53 37 -6 -4 -92 -113 -189
-242 -98 -129 -185 -243 -195 -253 -16 -17 -19 -16 -60 39 -47 63 -100 177
-95 205 3 14 120 175 180 246 5 7 24 30 40 51 93 121 248 167 396 119 76 -25
141 -84 179 -162 21 -43 24 -65 25 -150 l0 -100 330 -196 c181 -108 345 -202
364 -208 116 -38 257 18 300 120 37 86 20 188 -44 251 -21 21 -427 271 -677
417 -314 183 -549 331 -562 353 -47 78 29 186 114 160 14 -4 363 -209 775
-457 413 -247 772 -460 799 -473 115 -54 192 -40 282 52 63 64 84 112 84 188
0 73 -68 133 -379 333 -95 61 -218 140 -274 176 -56 37 -154 100 -217 141 -63
40 -170 110 -237 153 -68 44 -131 85 -140 90 -10 6 -78 49 -151 98 -150 98
-170 123 -151 191 17 61 95 94 152 65 12 -6 58 -35 102 -64 44 -29 152 -99
240 -157 88 -58 232 -152 320 -210 88 -57 205 -134 260 -170 55 -36 188 -123
295 -193 107 -70 211 -135 230 -143 53 -22 147 -18 205 9 54 25 111 78 126
116 16 43 10 113 -13 155 -25 44 -43 59 -473 383 -159 121 -357 271 -440 333
-82 63 -228 173 -324 246 -233 175 -241 183 -241 236 0 34 6 48 34 76 27 27
42 34 73 34 34 0 59 -15 213 -131 96 -72 186 -139 200 -150 242 -186 1101
-824 1132 -841 62 -32 155 -30 223 4 111 57 175 148 183 259 4 56 1 75 -20
120 -14 30 -45 73 -69 96 -81 77 -240 224 -360 334 -29 26 -226 208 -243 224
-6 6 -69 64 -141 130 -71 66 -135 124 -141 130 -6 5 -62 57 -125 115 -62 58
-123 114 -135 125 -11 11 -45 42 -75 69 -30 28 -101 94 -159 147 -165 153
-195 179 -201 179 -6 0 -358 213 -439 266 -95 62 -826 507 -842 513 -14 5 21
20 118 52 l138 46 235 -145 c130 -79 252 -155 271 -167z m2183 -294 c48 -59
103 -112 162 -155 21 -15 38 4 -215 -236 -90 -85 -212 -202 -273 -260 -60 -58
-113 -107 -119 -109 -6 -2 -89 75 -184 170 -135 134 -171 176 -161 184 8 6 38
31 68 57 82 70 339 288 469 396 63 53 121 103 129 110 12 11 18 5 42 -38 16
-29 53 -82 82 -119z m304 -241 c34 -17 105 -42 158 -57 66 -19 100 -34 109
-48 15 -23 20 -15 -67 -115 -12 -14 -65 -75 -117 -135 -52 -60 -99 -115 -105
-121 -5 -6 -86 -99 -180 -207 -93 -109 -173 -197 -177 -197 -4 0 -23 15 -42
33 -43 41 -198 183 -245 223 l-35 31 314 311 c173 171 317 312 320 312 3 0 33
-14 67 -30z m409 -348 l82 -147 -47 -41 c-36 -32 -47 -50 -49 -75 -3 -43 -38
-180 -62 -246 -44 -119 -120 -253 -209 -367 -84 -108 -69 -108 -164 -8 -46 48
-113 118 -148 156 -35 38 -79 83 -96 99 -18 17 -33 33 -33 37 0 6 38 55 75 96
11 12 43 48 70 80 45 52 71 83 164 189 14 17 66 77 115 135 50 58 101 116 113
130 13 14 40 46 61 71 20 26 39 45 42 42 3 -2 42 -71 86 -151z m-4995 -1187
c133 -47 221 -175 221 -320 0 -71 -19 -127 -63 -193 -29 -42 -96 -129 -109
-142 -3 -3 -37 -48 -75 -100 -38 -52 -72 -97 -75 -100 -3 -3 -18 -21 -33 -41
-61 -81 -204 -107 -302 -56 -100 53 -114 16 149 372 216 292 234 319 224 341
-17 37 -48 30 -84 -19 -17 -23 -84 -114 -149 -202 -123 -168 -179 -243 -192
-260 -5 -5 -26 -35 -48 -65 -21 -30 -40 -57 -43 -60 -13 -16 -130 156 -152
223 l-12 38 93 122 c51 67 98 127 104 132 7 6 51 62 98 126 115 155 152 185
259 213 59 15 130 12 189 -9z m-1331 -328 c58 -121 214 -231 345 -243 33 -4
62 -8 63 -9 2 -2 -18 -26 -45 -52 -146 -145 -312 -155 -460 -28 -79 67 -110
181 -78 291 19 67 55 136 93 177 l26 27 16 -57 c9 -32 27 -80 40 -106z m2201
39 c160 -76 243 -244 204 -416 -11 -51 -49 -121 -86 -161 -28 -30 -123 -151
-254 -324 -65 -85 -139 -179 -150 -191 -18 -19 -98 -32 -173 -28 -52 2 -87 11
-137 33 l-67 31 17 27 c10 16 25 37 35 48 17 21 49 61 299 390 80 105 148 192
151 195 3 3 16 19 28 37 18 25 20 36 12 57 -5 15 -17 26 -29 26 -13 0 -102
-109 -293 -359 l-275 -358 -25 19 c-31 22 -90 108 -108 158 -7 19 -14 55 -17
80 -4 44 -1 49 102 188 58 79 146 194 195 256 48 62 95 126 103 143 38 73 140
150 232 174 58 16 178 3 236 -25z m-1579 -522 c83 -131 234 -215 390 -218 38
0 68 -3 68 -5 0 -2 -25 -38 -55 -81 -75 -103 -111 -123 -224 -124 -76 0 -94 3
-152 31 -109 51 -175 122 -214 233 -36 102 -12 204 70 298 l38 44 27 -69 c14
-37 38 -86 52 -109z m718 -423 c90 -141 253 -233 437 -246 27 -2 51 -4 55 -4
11 -2 -31 -69 -67 -105 -159 -164 -436 -140 -562 48 -90 133 -83 299 19 428
l41 51 22 -61 c12 -33 37 -83 55 -111z m741 -346 c86 -178 257 -296 431 -299
21 -1 38 -6 38 -12 0 -22 -86 -98 -140 -123 -79 -37 -195 -40 -267 -6 -71 32
-106 60 -143 111 -42 59 -62 118 -61 184 1 72 5 90 36 158 30 66 57 101 63 80
2 -7 22 -49 43 -93z"/>
<path d="M8476 7325 c-93 -24 -174 -72 -251 -150 -109 -110 -158 -228 -159
-380 -1 -385 379 -649 740 -514 140 53 260 172 316 313 38 99 47 233 22 331
-47 179 -178 321 -359 388 -68 26 -230 32 -309 12z m263 -289 c195 -99 193
-388 -3 -488 -55 -28 -151 -35 -210 -15 -218 74 -255 368 -61 491 77 50 189
55 274 12z"/>
</g>
</svg>
